<svg xmlns="http://www.w3.org/2000/svg" width="40" height="40" viewBox="0 0 40 40" fill="none">
    <path
        d="M-8.17694e-07 11.6268L-8.56743e-08 28.3735C-3.84369e-08 29.4542 0.879333 30.3335 1.96 30.3335L23.3333 30.3335L24.6667 30.3335L38.04 30.3335C39.1207 30.3335 40 29.4542 40 28.3735L40 11.6268C40 10.5462 39.1207 9.66683 38.04 9.66683L24.6667 9.66683L23.3333 9.66683L1.96 9.66683C0.879332 9.66683 -8.64932e-07 10.5462 -8.17694e-07 11.6268ZM38.04 11.0002C38.386 11.0002 38.6667 11.2815 38.6667 11.6268L38.6667 28.3735C38.6667 28.7195 38.3853 29.0002 38.04 29.0002L24.6667 29.0002L24.6667 11.0002L38.04 11.0002ZM23.3333 29.0002L1.96 29.0002C1.61467 29.0002 1.33333 28.7188 1.33333 28.3735L1.33333 11.6268C1.33333 11.2808 1.61467 11.0002 1.96 11.0002L23.3333 11.0002L23.3333 29.0002Z"
        fill="#0085AF" />
    <path
        d="M8 27.6668C8 28.0355 8.298 28.3335 8.66667 28.3335C9.03533 28.3335 9.33333 28.0355 9.33333 27.6668C9.33333 27.2988 9.632 27.0002 10 27.0002L14 27.0002C14.368 27.0002 14.6667 27.2988 14.6667 27.6668C14.6667 28.0355 14.9647 28.3335 15.3333 28.3335C15.702 28.3335 16 28.0355 16 27.6668C16 26.5642 15.1027 25.6668 14 25.6668L10 25.6668C8.89733 25.6668 8 26.5642 8 27.6668Z"
        fill="#0085AF" />
    <path
        d="M32.6667 27.6668C32.6667 28.0355 32.9647 28.3335 33.3333 28.3335C33.702 28.3335 34 28.0355 34 27.6668C34 26.5642 33.1027 25.6668 32 25.6668L28 25.6668C26.8973 25.6668 26 26.5642 26 27.6668C26 28.0355 26.298 28.3335 26.6667 28.3335C27.0353 28.3335 27.3333 28.0355 27.3333 27.6668C27.3333 27.2988 27.632 27.0002 28 27.0002L32 27.0002C32.368 27.0002 32.6667 27.2988 32.6667 27.6668Z"
        fill="#0085AF" />
    <path
        d="M4 19.667L4 21.0003C4 21.369 4.298 21.667 4.66667 21.667C5.03533 21.667 5.33333 21.369 5.33333 21.0003L5.33333 19.667C5.33333 19.2983 5.03533 19.0003 4.66667 19.0003C4.298 19.0003 4 19.2983 4 19.667Z"
        fill="#0085AF" />
    <path
        d="M36 19.667L36 21.0003C36 21.369 36.298 21.667 36.6667 21.667C37.0353 21.667 37.3333 21.369 37.3333 21.0003L37.3333 19.667C37.3333 19.2983 37.0353 19.0003 36.6667 19.0003C36.298 19.0003 36 19.2983 36 19.667Z"
        fill="#0085AF" />
</svg>