<svg width="42" height="42" viewBox="0 0 42 42" fill="none" xmlns="http://www.w3.org/2000/svg">
    <g id="announcement_xcz4wogsydjn 1">
        <g id="Group">
            <g id="Group_2">
                <g id="Group_3">
                    <path id="Vector"
                        d="M25.7653 6.48291H25.4229L15.0017 12.2041H7.46948C3.35088 12.2041 0 15.5548 0 19.6736C0 23.3574 2.68256 26.4188 6.19473 27.027L3.77988 35.517H12.1116L14.4931 27.1445H15.0017L25.4232 32.8648H25.7656C27.972 32.8648 29.7675 31.0697 29.7675 28.8629V10.4846C29.7669 8.27835 27.9715 6.48291 25.7653 6.48291ZM10.097 32.8488H7.31256L8.77683 27.7007H11.5613L10.097 32.8488ZM19.1903 26.3997L15.686 24.4761H7.46948C4.82163 24.4761 2.66783 22.3214 2.66783 19.6736C2.66783 17.0257 4.82163 14.8719 7.46948 14.8719H15.686L19.1903 12.948V26.3997ZM27.0991 28.8629C27.0991 29.5006 26.649 30.0346 26.051 30.1657L21.8581 27.8643V11.4837L26.051 9.18177C26.6496 9.31291 27.0991 9.84746 27.0991 10.4851V28.8629Z"
                        fill="#73AF00" />
                    <path id="Vector_2"
                        d="M34.8865 13.9163L32.9785 15.8243C33.9643 17.1898 34.5522 18.8608 34.5522 20.6696C34.5522 22.4789 33.9643 24.1498 32.9785 25.5149L34.8865 27.4229C36.3462 25.5594 37.22 23.2152 37.22 20.6696C37.22 18.1239 36.3462 15.7799 34.8865 13.9163Z"
                        fill="#73AF00" />
                    <path id="Vector_3"
                        d="M38.2823 10.5206L36.3899 12.413C38.2276 14.6669 39.3321 17.5415 39.3321 20.6695C39.3321 23.7981 38.2276 26.6721 36.3899 28.926L38.2823 30.8184C40.5993 28.075 41.9999 24.5334 41.9999 20.6695C41.9999 16.8056 40.5993 13.264 38.2823 10.5206Z"
                        fill="#73AF00" />
                </g>
            </g>
        </g>
    </g>
</svg>