<svg xmlns="http://www.w3.org/2000/svg" width="44" height="44" viewBox="0 0 44 44" fill="none">
    <g>
        <path
            d="M37.0478 0H6.95224C3.11862 0 0 3.11862 0 6.95224V37.0478C0 40.8814 3.11862 44 6.95224 44H37.0478C40.8814 44 44 40.8814 44 37.0478V6.95224C44 3.11862 40.8814 0 37.0478 0ZM39.3651 37.0478C39.3651 38.3255 38.3255 39.3651 37.0479 39.3651H6.95224C5.67453 39.3651 4.63503 38.3255 4.63503 37.0478V6.95224C4.63503 5.67453 5.67466 4.63503 6.95224 4.63503H37.0478C38.3255 4.63503 39.365 5.67466 39.365 6.95224V37.0478H39.3651Z"
            fill="#0085AF"
        />
        <path
            className="checked"
            d="M30.5364 13.0269C29.7889 13.0269 29.0864 13.3181 28.5576 13.847L18.2031 24.2184L15.4433 21.4588C14.9149 20.9304 14.2124 20.6392 13.4651 20.6392C12.7178 20.6392 12.0152 20.9304 11.4867 21.4587C10.9584 21.9871 10.6675 22.6896 10.6675 23.4369C10.6675 24.1842 10.9584 24.8867 11.4867 25.4149L16.2253 30.1535C16.7537 30.682 17.4562 30.9731 18.2036 30.9731C18.9506 30.9731 19.6534 30.6819 20.1824 30.153L32.5147 17.8029C33.6053 16.712 33.6052 14.9371 32.5147 13.8461C31.9863 13.3179 31.2837 13.0269 30.5364 13.0269Z"
            fill="#0085AF"
        />
    </g>
</svg>