<svg xmlns="http://www.w3.org/2000/svg" width="34" height="34" viewBox="0 0 34 34" fill="none">
    <g>
        <path
            d="M17 34C26.3888 34 34 26.3888 34 17C34 7.61116 26.3888 0 17 0C7.61116 0 0 7.61116 0 17C0 26.3888 7.61116 34 17 34Z"
            fill="#E21B1B" />
        <path
            d="M33.8859 18.9458L24.4318 9.4917L9.97754 24.4777L19.336 33.8362C26.9844 32.7844 33.0078 26.6479 33.8859 18.9458Z"
            fill="#C40606" />
        <path
            d="M23.5327 24.6721C23.1927 24.6721 22.8532 24.5425 22.5934 24.2832L9.72228 11.4116C9.20325 10.8925 9.20325 10.0521 9.72228 9.53361C10.2413 9.01511 11.0817 9.01457 11.6002 9.53361L24.4719 22.4053C24.9909 22.9243 24.9909 23.7647 24.4719 24.2832C24.2121 24.5425 23.8727 24.6721 23.5327 24.6721Z"
            fill="white" />
        <path
            d="M10.661 24.6723C10.321 24.6723 9.98157 24.5427 9.72179 24.2834C9.20276 23.7644 9.20276 22.924 9.72179 22.4055L22.5934 9.5338C23.1125 9.01477 23.9529 9.01477 24.4714 9.5338C24.9899 10.0528 24.9904 10.8933 24.4714 11.4118L11.6003 24.2834C11.341 24.5427 11.001 24.6723 10.661 24.6723Z"
            fill="white" />
    </g>
</svg>