<svg xmlns="http://www.w3.org/2000/svg" width="20" height="44" viewBox="0 0 20 44" fill="none">
    <path
        d="M19.8825 18.4323C19.7325 18.1624 19.4608 17.995 19.1674 17.995H10.397L16.6073 1.2344C16.7107 0.955452 16.6789 0.642338 16.5239 0.395863C16.369 0.147531 16.1106 0 15.834 0H7.50017C7.13351 0 6.81013 0.259128 6.70348 0.635253L0.0364836 24.0288C-0.0401611 24.3023 0.00484148 24.5974 0.163131 24.8277C0.321421 25.0581 0.568153 25.1931 0.833168 25.1931H8.24521L6.67012 42.1984C6.63176 42.6249 6.87677 43.0226 7.25679 43.1485C7.3368 43.1755 7.41844 43.1881 7.50017 43.1881C7.80018 43.1881 8.0852 43.0117 8.23357 42.7148L19.9008 19.3213C20.0392 19.0423 20.0325 18.7041 19.8825 18.4323ZM8.74359 37.8958L9.9953 24.3833C10.0187 24.1296 9.94194 23.8795 9.78365 23.6887C9.627 23.5015 9.40199 23.3935 9.16698 23.3935H1.96159L8.11528 1.79947H14.604L8.39365 18.5601C8.29029 18.8372 8.32365 19.1503 8.47702 19.3986C8.63202 19.6469 8.8904 19.7945 9.16705 19.7945H17.7725L8.74359 37.8958Z"
        fill="#0085AF" />
</svg>