<svg xmlns="http://www.w3.org/2000/svg" width="16" height="16" viewBox="0 0 16 16" fill="none">
  <path d="M15.8045 7.5286L13.0206 4.74466C10.2526 1.97606 5.74737 1.97606 2.97943 4.74466L0.195488 7.5286C-0.0651627 7.78925 -0.0651627 8.21059 0.195488 8.47124L2.97943 11.2552C4.3634 12.6391 6.18136 13.3318 7.99998 13.3318C9.81859 13.3318 11.6366 12.6391 13.0205 11.2552L15.8045 8.47124C16.0651 8.21059 16.0651 7.78925 15.8045 7.5286ZM7.99998 11.3332C6.16202 11.3332 4.6667 9.83786 4.6667 7.9999C4.6667 6.16194 6.16202 4.66663 7.99998 4.66663C9.83794 4.66663 11.3332 6.16194 11.3332 7.9999C11.3332 9.83786 9.83794 11.3332 7.99998 11.3332Z" fill="#E4E4E4"/>
  <path d="M7.99996 6C6.89732 6 6 6.89732 6 7.99996C6 9.10259 6.89732 9.99991 7.99996 9.99991C9.10259 9.99991 9.99991 9.10259 9.99991 7.99996C9.99991 6.89732 9.10262 6 7.99996 6Z" fill="#E4E4E4"/>
</svg>