<svg xmlns="http://www.w3.org/2000/svg" width="46" height="46" viewBox="0 0 46 46" fill="none">
  <g clip-path="url(#clip0_228_1799)">
    <g filter="url(#filter0_d_228_1799)">
      <path d="M45.9999 17.9772H0V8.72429C0 8.2863 0.355152 7.93115 0.793139 7.93115H45.2069C45.6449 7.93115 46 8.2863 46 8.72429L45.9999 17.9772Z" fill="#82AFFF"/>
    </g>
    <g filter="url(#filter1_d_228_1799)">
      <path d="M45.2068 38.0689H0.793139C0.355152 38.0689 0 37.7137 0 37.2758V28.0229H45.9999V37.2758C45.9999 37.7138 45.6448 38.0689 45.2068 38.0689Z" fill="#73AF00"/>
    </g>
    <g filter="url(#filter2_d_228_1799)">
      <path d="M45.9999 17.9771H0V28.0225H45.9999V17.9771Z" fill="#F9F9F9"/>
    </g>
    <g filter="url(#filter3_d_228_1799)">
      <path d="M45.9999 17.085H0V18.3376H45.9999V17.085Z" fill="#FF4B55"/>
      <path d="M45.9999 28H0V29.2526H45.9999V28Z" fill="#FF4B55"/>
    </g>
    <g>
      <path d="M10.1966 15.4596C8.5729 15.4596 7.25678 14.1466 7.25678 12.5288C7.25678 10.905 8.57281 9.58614 10.1966 9.58614C10.2028 9.58614 10.209 9.58614 10.2151 9.58623C10.3107 9.58749 10.3442 9.46054 10.2599 9.41535C9.75991 9.14735 9.18932 8.99569 8.58269 9.00009C6.63991 9.01393 5.06181 10.6238 5.08248 12.5666C5.10278 14.4894 6.67468 16.0457 8.60812 16.0457C9.20639 16.0457 9.76899 15.8943 10.2628 15.63C10.3468 15.585 10.3128 15.4581 10.2176 15.4594C10.2104 15.4596 10.2035 15.4596 10.1966 15.4596Z" fill="#F9F9F9"/>
      <path d="M12.4986 14.649L12.3673 15.0427L11.9523 15.0459C11.8986 15.0462 11.8763 15.1149 11.9195 15.1468L12.2534 15.3933L12.1281 15.789C12.112 15.8402 12.1703 15.8826 12.214 15.8513L12.5517 15.61L12.8893 15.8513C12.9331 15.8826 12.9913 15.8402 12.9752 15.789L12.8499 15.3933L13.1837 15.1468C13.2269 15.1149 13.2046 15.0462 13.1509 15.0459L12.7359 15.0427L12.6047 14.649C12.5877 14.5981 12.5156 14.5981 12.4986 14.649Z" fill="#F9F9F9"/>
      <path d="M15.4224 14.649L15.2911 15.0427L14.8761 15.0459C14.8224 15.0462 14.8001 15.1149 14.8434 15.1468L15.1771 15.3933L15.0519 15.789C15.0357 15.8402 15.094 15.8826 15.1378 15.8513L15.4754 15.61L15.813 15.8513C15.8568 15.8826 15.915 15.8402 15.8989 15.789L15.7737 15.3933L16.1075 15.1468C16.1507 15.1149 16.1284 15.0462 16.0747 15.0459L15.6597 15.0427L15.5284 14.649C15.5114 14.5981 15.4393 14.5981 15.4224 14.649Z" fill="#F9F9F9"/>
      <path d="M18.346 14.649L18.2147 15.0427L17.7997 15.0459C17.746 15.0462 17.7237 15.1149 17.7669 15.1468L18.1008 15.3933L17.9756 15.789C17.9594 15.8402 18.0177 15.8826 18.0614 15.8513L18.3991 15.61L18.7367 15.8513C18.7805 15.8826 18.8387 15.8402 18.8226 15.789L18.6974 15.3933L19.0311 15.1468C19.0743 15.1149 19.0521 15.0462 18.9983 15.0459L18.5833 15.0427L18.4521 14.649C18.4351 14.5981 18.363 14.5981 18.346 14.649Z" fill="#F9F9F9"/>
      <path d="M21.2696 14.649L21.1383 15.0427L20.7233 15.0459C20.6696 15.0462 20.6473 15.1149 20.6905 15.1468L21.0243 15.3933L20.8991 15.789C20.8829 15.8402 20.9412 15.8826 20.9849 15.8513L21.3226 15.61L21.6602 15.8513C21.704 15.8826 21.7622 15.8402 21.7461 15.789L21.6209 15.3933L21.9546 15.1468C21.9978 15.1149 21.9756 15.0462 21.9218 15.0459L21.5068 15.0427L21.3756 14.649C21.3587 14.5981 21.2865 14.5981 21.2696 14.649Z" fill="#F9F9F9"/>
      <path d="M24.1934 14.649L24.0621 15.0427L23.6471 15.0459C23.5934 15.0462 23.5711 15.1149 23.6144 15.1468L23.9482 15.3933L23.823 15.789C23.8068 15.8402 23.8651 15.8826 23.9089 15.8513L24.2465 15.61L24.5841 15.8513C24.6279 15.8826 24.6861 15.8402 24.67 15.789L24.5448 15.3933L24.8786 15.1468C24.9218 15.1149 24.8996 15.0462 24.8458 15.0459L24.4308 15.0427L24.2996 14.649C24.2824 14.5981 24.2104 14.5981 24.1934 14.649Z" fill="#F9F9F9"/>
      <path d="M15.4224 11.9202L15.2911 12.3139L14.8761 12.317C14.8224 12.3174 14.8001 12.386 14.8434 12.4179L15.1771 12.6644L15.0519 13.0601C15.0357 13.1113 15.094 13.1537 15.1378 13.1225L15.4754 12.8811L15.813 13.1225C15.8568 13.1537 15.915 13.1113 15.8989 13.0601L15.7737 12.6644L16.1075 12.4179C16.1507 12.386 16.1284 12.3174 16.0747 12.317L15.6597 12.3139L15.5284 11.9202C15.5114 11.8691 15.4393 11.8691 15.4224 11.9202Z" fill="#F9F9F9"/>
      <path d="M18.346 11.9202L18.2147 12.3139L17.7997 12.317C17.746 12.3174 17.7237 12.386 17.7669 12.4179L18.1008 12.6644L17.9756 13.0601C17.9594 13.1113 18.0177 13.1537 18.0614 13.1225L18.3991 12.8811L18.7367 13.1225C18.7805 13.1537 18.8387 13.1113 18.8226 13.0601L18.6974 12.6644L19.0311 12.4179C19.0743 12.386 19.0521 12.3174 18.9983 12.317L18.5833 12.3139L18.4521 11.9202C18.4351 11.8691 18.363 11.8691 18.346 11.9202Z" fill="#F9F9F9"/>
      <path d="M21.2696 11.9202L21.1383 12.3139L20.7233 12.317C20.6696 12.3174 20.6473 12.386 20.6905 12.4179L21.0243 12.6644L20.8991 13.0601C20.8829 13.1113 20.9412 13.1537 20.9849 13.1225L21.3226 12.8811L21.6602 13.1225C21.704 13.1537 21.7622 13.1113 21.7461 13.0601L21.6209 12.6644L21.9546 12.4179C21.9978 12.386 21.9756 12.3174 21.9218 12.317L21.5068 12.3139L21.3756 11.9202C21.3587 11.8691 21.2865 11.8691 21.2696 11.9202Z" fill="#F9F9F9"/>
      <path d="M24.1934 11.9202L24.0621 12.3139L23.6471 12.317C23.5934 12.3174 23.5711 12.386 23.6144 12.4179L23.9482 12.6644L23.823 13.0601C23.8068 13.1113 23.8651 13.1537 23.9089 13.1225L24.2465 12.8811L24.5841 13.1225C24.6279 13.1537 24.6861 13.1113 24.67 13.0601L24.5448 12.6644L24.8786 12.4179C24.9218 12.386 24.8996 12.3174 24.8458 12.317L24.4308 12.3139L24.2996 11.9202C24.2824 11.8691 24.2104 11.8691 24.1934 11.9202Z" fill="#F9F9F9"/>
      <path d="M18.346 14.649L18.2147 15.0427L17.7997 15.0459C17.746 15.0462 17.7237 15.1149 17.7669 15.1468L18.1008 15.3933L17.9756 15.789C17.9594 15.8402 18.0177 15.8826 18.0614 15.8513L18.3991 15.61L18.7367 15.8513C18.7805 15.8826 18.8387 15.8402 18.8226 15.789L18.6974 15.3933L19.0311 15.1468C19.0743 15.1149 19.0521 15.0462 18.9983 15.0459L18.5833 15.0427L18.4521 14.649C18.4351 14.5981 18.363 14.5981 18.346 14.649Z" fill="#F9F9F9"/>
      <path d="M18.346 9.19153L18.2147 9.58522L17.7997 9.58837C17.746 9.58872 17.7237 9.65737 17.7669 9.68926L18.1008 9.93579L17.9756 10.3315C17.9594 10.3827 18.0177 10.4251 18.0614 10.3938L18.3991 10.1525L18.7367 10.3938C18.7805 10.4251 18.8387 10.3827 18.8226 10.3315L18.6974 9.93579L19.0311 9.68926C19.0743 9.65737 19.0521 9.58872 18.9983 9.58837L18.5833 9.58522L18.4521 9.19153C18.4351 9.14058 18.363 9.14058 18.346 9.19153Z" fill="#F9F9F9"/>
      <path d="M21.2696 14.649L21.1383 15.0427L20.7233 15.0459C20.6696 15.0462 20.6473 15.1149 20.6905 15.1468L21.0243 15.3933L20.8991 15.789C20.8829 15.8402 20.9412 15.8826 20.9849 15.8513L21.3226 15.61L21.6602 15.8513C21.704 15.8826 21.7622 15.8402 21.7461 15.789L21.6209 15.3933L21.9546 15.1468C21.9978 15.1149 21.9756 15.0462 21.9218 15.0459L21.5068 15.0427L21.3756 14.649C21.3587 14.5981 21.2865 14.5981 21.2696 14.649Z" fill="#F9F9F9"/>
      <path d="M24.1934 14.649L24.0621 15.0427L23.6471 15.0459C23.5934 15.0462 23.5711 15.1149 23.6144 15.1468L23.9482 15.3933L23.823 15.789C23.8068 15.8402 23.8651 15.8826 23.9089 15.8513L24.2465 15.61L24.5841 15.8513C24.6279 15.8826 24.6861 15.8402 24.67 15.789L24.5448 15.3933L24.8786 15.1468C24.9218 15.1149 24.8996 15.0462 24.8458 15.0459L24.4308 15.0427L24.2996 14.649C24.2824 14.5981 24.2104 14.5981 24.1934 14.649Z" fill="#F9F9F9"/>
      <path d="M21.2696 9.19153L21.1383 9.58522L20.7233 9.58837C20.6696 9.58872 20.6473 9.65737 20.6905 9.68926L21.0243 9.93579L20.8991 10.3315C20.8829 10.3827 20.9412 10.4251 20.9849 10.3938L21.3226 10.1525L21.6602 10.3938C21.704 10.4251 21.7622 10.3827 21.7461 10.3315L21.6209 9.93579L21.9546 9.68926C21.9978 9.65737 21.9756 9.58872 21.9218 9.58837L21.5068 9.58522L21.3756 9.19153C21.3587 9.14058 21.2865 9.14058 21.2696 9.19153Z" fill="#F9F9F9"/>
      <path d="M24.1934 9.19153L24.0621 9.58522L23.6471 9.58837C23.5934 9.58872 23.5711 9.65737 23.6144 9.68926L23.9482 9.93579L23.823 10.3315C23.8068 10.3827 23.8651 10.4251 23.9089 10.3938L24.2465 10.1525L24.5841 10.3938C24.6279 10.4251 24.6861 10.3827 24.67 10.3315L24.5448 9.93579L24.8786 9.68926C24.9218 9.65737 24.8996 9.58872 24.8458 9.58837L24.4308 9.58522L24.2996 9.19153C24.2824 9.14058 24.2104 9.14058 24.1934 9.19153Z" fill="#F9F9F9"/>
    </g>
  </g>
</svg>