<svg width="59" height="59" viewBox="0 0 59 59" fill="none" xmlns="http://www.w3.org/2000/svg">
    <g clip-path="url(#clip0_136_426)">
        <path
            d="M49 11.289V16.711C49 16.87 48.87 17 48.71 17H48V2H58C58.552 2 59 1.553 59 1C59 0.447 58.552 0 58 0H47C46.956 0 46.918 0.02 46.876 0.025C46.804 0.034 46.734 0.042 46.665 0.067C46.599 0.091 46.543 0.127 46.485 0.163C46.446 0.187 46.402 0.197 46.366 0.227L3.841 35.191C3.415 35.542 3.353 36.172 3.704 36.598C3.902 36.839 4.188 36.963 4.477 36.963C4.701 36.963 4.926 36.889 5.112 36.735L7 35.183V49H2.29C1.027 49 0 50.027 0 51.289V59H59V9H51.29C50.027 9 49 10.027 49 11.289ZM41.29 17C40.027 17 39 18.027 39 19.289V25H38V9.695L46 3.117V17H41.29ZM32.29 25C31.027 25 30 26.027 30 27.289V32.711C30 32.87 29.87 33 29.71 33H29V17.095L36 11.339V25H32.29ZM22.29 33C21.027 33 20 34.027 20 35.289V40.711C20 40.87 19.87 41 19.71 41H19V25.317L27 18.739V33H22.29ZM9 33.539L17 26.961V41H12.29C11.027 41 10 42.027 10 43.289V48.711C10 48.87 9.87 49 9.71 49H9V33.539ZM57 57H2V51.289C2 51.13 2.13 51 2.29 51H9.71C10.973 51 12 49.973 12 48.711V43.289C12 43.13 12.13 43 12.29 43H19.711C20.974 43 22.001 41.973 22.001 40.711V35.289C22 35.13 22.13 35 22.29 35H29.711C30.974 35 32.001 33.973 32.001 32.711V27.289C32 27.13 32.13 27 32.29 27H41V19.289C41 19.13 41.13 19 41.29 19H48.711C49.974 19 51.001 17.973 51.001 16.711V11.289C51 11.13 51.13 11 51.29 11H57V57Z"
            fill="#0085AF" />
    </g>
</svg>
    