<svg width="40" height="40" viewBox="0 0 40 40" fill="none" xmlns="http://www.w3.org/2000/svg">
    <path
        d="M17.009 29.4092H16.8841C16.4239 29.4092 16.0508 29.7822 16.0508 30.2425C16.0508 30.7027 16.4238 31.0759 16.8841 31.0759H17.009C17.4691 31.0759 17.8423 30.7027 17.8423 30.2425C17.8423 29.7823 17.4691 29.4092 17.009 29.4092Z"
        fill="#0085AF" />
    <path
        d="M27.0833 8.44164V0.833359C27.0833 0.373047 26.7101 0 26.25 0H13.7499C13.2896 0 12.9165 0.373047 12.9165 0.833359V8.44172C10.7756 8.90531 9.1665 10.8133 9.1665 13.0909V30.2423C9.1665 32.5199 10.7757 34.4278 12.9167 34.8914V39.1666C12.9167 39.6269 13.2897 40 13.75 40H22.7421H22.7423H26.2499C26.71 40 27.0833 39.627 27.0833 39.1666V34.8915C29.224 34.4279 30.8331 32.5199 30.8331 30.2423V13.0909C30.8331 10.8132 29.2241 8.90516 27.0833 8.44164ZM14.5832 1.66664H25.4167V8.33328H22.4999V5.00031C22.4999 4.54016 22.1268 4.16695 21.6665 4.16695H18.333C17.8728 4.16695 17.4996 4.54008 17.4996 5.00031V8.33328H14.5831V1.66664H14.5832ZM20.8332 5.83367V8.33336H19.1664V5.83367H20.8332ZM21.909 38.3334H14.5834V34.9998H21.9092L21.909 38.3334ZM25.4167 38.3334H23.5756L23.5758 34.9998H25.4167V38.3334ZM29.1665 30.2423C29.1665 31.9466 27.7801 33.3332 26.0759 33.3332H22.7425H13.9242C12.5086 33.3332 11.3131 32.3764 10.9483 31.0756H14.3477C14.8078 31.0756 15.181 30.7024 15.181 30.2423C15.181 29.782 14.8078 29.4089 14.3477 29.4089H10.8332V13.0909C10.8332 11.3866 12.2198 9.99992 13.9242 9.99992H26.0759C27.4913 9.99992 28.6867 10.9567 29.0514 12.2575H25.6524C25.1921 12.2575 24.819 12.6305 24.819 13.0909C24.819 13.551 25.192 13.9242 25.6524 13.9242H29.1665V30.2423Z"
        fill="#0085AF" />
    <path
        d="M21.897 18.079C21.3881 17.5759 20.862 17.0555 20.8294 16.7178C20.7961 16.3718 20.5514 16.0828 20.2157 15.9929C19.8797 15.9027 19.5234 16.0308 19.3215 16.314C18.6738 17.2223 18.2809 18.1281 18.1404 19.0462C18.0143 18.9501 17.8614 18.8901 17.6976 18.8776C17.3921 18.8555 17.0984 19.0009 16.9329 19.2589C16.0372 20.6565 15.583 21.8992 15.583 22.9526C15.583 25.4293 17.5231 27.3694 20 27.3694C22.4354 27.3694 24.4168 25.388 24.4168 22.9526C24.4168 20.5713 22.9602 19.1308 21.897 18.079ZM20 25.7027C18.4576 25.7027 17.2496 24.4947 17.2496 22.9526C17.2496 22.4827 17.41 21.9075 17.7194 21.256C18.0136 21.5311 18.3621 21.7623 18.773 21.9581C19.0714 22.1001 19.4254 22.0526 19.6755 21.8369C19.9258 21.6212 20.0249 21.278 19.9282 20.9621C19.7373 20.3375 19.6052 19.5344 19.9984 18.513C20.2209 18.7658 20.4706 19.0126 20.725 19.2643C21.7205 20.249 22.7502 21.2671 22.7502 22.9526C22.7501 24.469 21.5164 25.7027 20 25.7027Z"
        fill="#0085AF" />
    <path
        d="M22.9911 13.924H23.1159C23.5761 13.924 23.9493 13.5508 23.9493 13.0907C23.9493 12.6304 23.5762 12.2573 23.1159 12.2573H22.9911C22.5308 12.2573 22.1577 12.6304 22.1577 13.0907C22.1577 13.5508 22.5308 13.924 22.9911 13.924Z"
        fill="#0085AF" />
</svg>
    