<svg xmlns="http://www.w3.org/2000/svg" width="64" height="64" viewBox="0 0 64 64" fill="none">
    <path
        d="M48.2066 34.4003C48.1822 34.2804 48.1448 34.1626 48.0979 34.0483C48.0512 33.9359 47.9931 33.8274 47.9257 33.7263C47.8583 33.6233 47.7797 33.5278 47.6936 33.4417C47.2592 33.0073 46.6133 32.8069 46.0048 32.9306C45.8849 32.9531 45.7671 32.9904 45.6528 33.0373C45.5404 33.0841 45.4319 33.1403 45.3308 33.2096C45.2278 33.2769 45.1323 33.3556 45.0462 33.4417C44.9601 33.5278 44.8814 33.6233 44.8141 33.7263C44.7448 33.8274 44.6886 33.9361 44.6418 34.0483C44.5951 34.1626 44.5576 34.2804 44.5351 34.4003C44.5107 34.5202 44.4976 34.6437 44.4976 34.7654C44.4976 34.8872 44.5107 35.0107 44.5351 35.1306C44.5576 35.2504 44.5949 35.3683 44.6418 35.4807C44.6886 35.5949 44.7448 35.7034 44.8141 35.8046C44.8814 35.9076 44.9601 36.0031 45.0462 36.0892C45.1323 36.1753 45.2278 36.2539 45.3308 36.3213C45.4319 36.3887 45.5406 36.4468 45.6528 36.4936C45.7671 36.5403 45.8849 36.5759 46.0048 36.6003C46.1247 36.6247 46.2482 36.6378 46.3699 36.6378C46.8623 36.6378 47.3454 36.4374 47.6937 36.0892C47.7798 36.0031 47.8584 35.9076 47.9258 35.8046C47.9932 35.7034 48.0513 35.5948 48.0981 35.4807C48.1448 35.3683 48.1823 35.2504 48.2067 35.1306C48.2311 35.0107 48.2423 34.8872 48.2423 34.7654C48.2421 34.6437 48.2308 34.5202 48.2066 34.4003Z"
        fill="#0085AF" />
    <path
        d="M62.1863 29.8509L56.9945 24.5799V8.22225C56.9945 7.18825 56.1563 6.35 55.1223 6.35H47.0042C45.9702 6.35 45.1319 7.18825 45.1319 8.22225V12.5365L33.3338 0.55825C32.9818 0.201125 32.5012 0 31.9998 0C31.4984 0 31.0178 0.201125 30.6658 0.55825L1.8133 29.8507C1.0878 30.5875 1.09655 31.7729 1.8333 32.4985C2.57005 33.224 3.75542 33.215 4.48105 32.4785L7.14505 29.7739V62.1278C7.14505 63.1618 7.9833 64 9.0173 64H24.7448H39.2548H54.9822C56.0162 64 56.8544 63.1618 56.8544 62.1278V29.7739L59.5184 32.4785C59.885 32.8505 60.3684 33.0368 60.8524 33.0368C61.3268 33.0368 61.8014 32.8576 62.1662 32.4985C62.903 31.7729 62.9118 30.5876 62.1863 29.8509ZM31.9998 4.54025L45.3163 18.0596C45.4037 18.2431 45.5194 18.4135 45.6639 18.5616L52.0718 25.1309H11.7183L31.9998 4.54025ZM37.3825 60.2555H26.617V44.5443H37.3825V60.2555ZM53.1099 60.2555H41.127V42.6719C41.127 41.6379 40.2888 40.7996 39.2548 40.7996H24.7448C23.7108 40.7996 22.8725 41.6379 22.8725 42.6719V60.2555H10.8897V36.6374H40.7527C41.7867 36.6374 42.6249 35.7991 42.6249 34.7651C42.6249 33.7311 41.7867 32.8929 40.7527 32.8929H10.8897V28.8754H53.11L53.1099 60.2555ZM53.25 20.7782L48.8764 16.338V10.0945H53.25V20.7782Z"
        fill="#0085AF" />
</svg>