<svg xmlns="http://www.w3.org/2000/svg" width="190" height="152" viewBox="0 0 190 152" fill="none">
    <path
        d="M156.75 0H33.25C24.4316 0 15.9743 3.50312 9.7387 9.7387C3.50311 15.9743 0 24.4316 0 33.25V118.75C0 127.568 3.50311 136.026 9.7387 142.261C15.9743 148.497 24.4316 152 33.25 152H156.75C165.568 152 174.026 148.497 180.261 142.261C186.497 136.026 190 127.568 190 118.75V33.25C190 24.4316 186.497 15.9743 180.261 9.7387C174.026 3.50312 165.568 0 156.75 0ZM9.5 33.25C9.5 26.9511 12.0022 20.9102 16.4562 16.4562C20.9102 12.0022 26.9511 9.5 33.25 9.5H156.75C163.049 9.5 169.09 12.0022 173.544 16.4562C177.998 20.9102 180.5 26.9511 180.5 33.25V112.148L136.372 67.8775C135.929 67.4373 135.402 67.089 134.824 66.8526C134.245 66.6162 133.625 66.4964 133 66.5C132.375 66.4964 131.755 66.6162 131.176 66.8526C130.598 67.089 130.071 67.4373 129.628 67.8775L80.75 116.803L50.8725 86.8775C50.4309 86.4323 49.9056 86.0789 49.3267 85.8378C48.7479 85.5966 48.1271 85.4725 47.5 85.4725C46.8729 85.4725 46.2521 85.5966 45.6733 85.8378C45.0944 86.0789 44.5691 86.4323 44.1275 86.8775L9.7375 121.268C9.61133 120.433 9.53204 119.593 9.5 118.75V33.25ZM156.75 142.5H33.25C29.2255 142.487 25.2702 141.451 21.7557 139.491C18.2411 137.53 15.2825 134.708 13.1575 131.29L47.5 96.9475L77.3775 126.873C77.8191 127.318 78.3444 127.671 78.9233 127.912C79.5021 128.153 80.1229 128.278 80.75 128.278C81.3771 128.278 81.9979 128.153 82.5767 127.912C83.1556 127.671 83.6809 127.318 84.1225 126.873L133 77.995L179.645 124.735C178.324 129.808 175.362 134.301 171.221 137.514C167.08 140.727 161.992 142.48 156.75 142.5Z"
        fill="#5D6661" />
    <path
        d="M83.5 66.5C87.2578 66.5 90.9313 65.3857 94.0558 63.2979C97.1804 61.2102 99.6156 58.2428 101.054 54.771C102.492 51.2992 102.868 47.4789 102.135 43.7933C101.402 40.1077 99.5922 36.7222 96.935 34.065C94.2778 31.4078 90.8924 29.5982 87.2067 28.8651C83.5211 28.132 79.7008 28.5082 76.229 29.9463C72.7572 31.3844 69.7898 33.8196 67.7021 36.9442C65.6143 40.0687 64.5 43.7422 64.5 47.5C64.5 52.5391 66.5018 57.3718 70.065 60.935C73.6282 64.4982 78.4609 66.5 83.5 66.5ZM83.5 38C85.3789 38 87.2157 38.5572 88.7779 39.601C90.3402 40.6449 91.5578 42.1286 92.2769 43.8645C92.9959 45.6004 93.184 47.5105 92.8175 49.3534C92.4509 51.1962 91.5461 52.8889 90.2175 54.2175C88.8889 55.5461 87.1962 56.4509 85.3534 56.8175C83.5105 57.184 81.6004 56.9959 79.8645 56.2769C78.1286 55.5578 76.6449 54.3402 75.601 52.7779C74.5572 51.2157 74 49.3789 74 47.5C74 44.9805 75.0009 42.5641 76.7825 40.7825C78.5641 39.0009 80.9804 38 83.5 38Z"
        fill="#5D6661" />
</svg>