<svg xmlns="http://www.w3.org/2000/svg" width="78" height="78" viewBox="0 0 78 78" fill="none">
  <path fill-rule="evenodd" clip-rule="evenodd" d="M52.3766 17.8796H25.6237C21.3541 17.8796 17.8796 21.3539 17.8796 25.6237V52.3764C17.8796 56.6469 21.3541 60.1214 25.6237 60.1214H52.3766C56.6469 60.1214 60.1214 56.6469 60.1214 52.3764V25.6237C60.1214 21.3541 56.6469 17.8796 52.3766 17.8796ZM38.9996 52.9059C31.3327 52.9059 25.0942 46.6674 25.0942 38.9996C25.0942 31.3327 31.3327 25.0942 38.9996 25.0942C46.6674 25.0942 52.9059 31.3327 52.9059 38.9996C52.9059 46.6674 46.6674 52.9059 38.9996 52.9059ZM53.3533 27.9697C51.5381 27.9697 50.0621 26.4937 50.0621 24.6796C50.0621 22.8652 51.5381 21.3892 53.3533 21.3892C55.1675 21.3892 56.6435 22.8652 56.6435 24.6796C56.6435 26.4939 55.1675 27.9697 53.3533 27.9697Z" fill="#E7E7E7"/>
  <path fill-rule="evenodd" clip-rule="evenodd" d="M38.9994 30.9709C34.5733 30.9709 30.969 34.5735 30.969 38.9996C30.969 43.4274 34.5733 47.0308 38.9994 47.0308C43.4271 47.0308 47.0289 43.4274 47.0289 38.9996C47.0289 34.5735 43.4271 30.9709 38.9994 30.9709Z" fill="#E7E7E7"/>
  <path fill-rule="evenodd" clip-rule="evenodd" d="M14 0C6.26801 0 0 6.26801 0 14V64C0 71.732 6.26801 78 14 78H64C71.732 78 78 71.732 78 64V14C78 6.26801 71.732 0 64 0H14ZM65.9966 52.3764C65.9966 59.8877 59.8877 65.9966 52.3766 65.9966H25.6236C18.1131 65.9966 12.0034 59.8877 12.0034 52.3764V25.6236C12.0034 18.1131 18.1131 12.0034 25.6236 12.0034H52.3766C59.8877 12.0034 65.9966 18.1131 65.9966 25.6236V52.3764Z" fill="#E7E7E7"/>
</svg>