<svg width="23" height="28" viewBox="0 0 23 28" fill="none" xmlns="http://www.w3.org/2000/svg">
    <path
        d="M1.70177 27.8868L9.45692 24.4957C9.65111 24.3561 9.8453 24.2165 9.97685 24.0835L22.7497 7.5537C23.1381 6.92868 23.0754 6.10418 22.5555 5.6188L16.4917 0.292826C15.9905 -0.0994735 15.22 -0.159316 14.7314 0.49895L1.89596 17.0221C1.76442 17.2282 1.70177 17.4343 1.63287 17.6471L0.00415921 26.4306C-0.0772761 27.9333 1.05655 28.1927 1.70177 27.8868ZM15.8402 3.25835L19.9433 6.85554L8.8117 21.2908L4.7462 17.7202L15.8402 3.25835ZM3.73765 20.4065L6.51898 22.8534L2.93583 24.4226L3.73765 20.4065Z"
        fill="#0085AF" />
</svg>
    