<svg width="32" height="32" viewBox="0 0 32 32" fill="#000" xmlns="http://www.w3.org/2000/svg">
    <g id="plus_9dsi9qqdr7o0 3" clip-path="url(#clip0_228_1726)">
        <path id="Vector"
            d="M16 0C7.17785 0 0 7.17723 0 16C0 24.8228 7.17785 32 16 32C24.8222 32 32 24.8228 32 16C32 7.17723 24.8222 0 16 0ZM23.6923 17.2308H17.2308V24C17.2308 24.6794 16.6794 25.2308 16 25.2308C15.3206 25.2308 14.7692 24.6794 14.7692 24V17.2308H8.30769C7.62831 17.2308 7.07692 16.6794 7.07692 16C7.07692 15.3206 7.62831 14.7692 8.30769 14.7692H14.7692V8.61539C14.7692 7.936 15.3206 7.38462 16 7.38462C16.6794 7.38462 17.2308 7.936 17.2308 8.61539V14.7692H23.6923C24.3717 14.7692 24.9231 15.3206 24.9231 16C24.9231 16.6794 24.3717 17.2308 23.6923 17.2308Z"
            fill="gray" />
    </g>
</svg>