<svg xmlns="http://www.w3.org/2000/svg" width="62" height="62" viewBox="0 0 62 62" fill="none">
    <g clip-path="url(#clip0_136_441)">
        <path
            d="M30.9392 33.4922C30.6909 32.2531 29.7154 31.2887 28.4735 31.0547C27.2315 30.8208 25.972 31.364 25.2899 32.4278L20.6668 39.6446L16.0437 32.4269C15.3615 31.363 14.1019 30.8197 12.8601 31.0538C11.6182 31.2877 10.6426 32.2521 10.3944 33.4913L7.2944 48.9913C6.99614 50.6527 8.08175 52.2474 9.73686 52.5788C11.392 52.9102 13.008 51.8567 13.3725 50.2085L14.9669 42.2404L18.0566 47.0661C18.6266 47.9557 19.6104 48.4937 20.6668 48.4937C21.7232 48.4937 22.707 47.9557 23.277 47.0661L26.3667 42.2415L27.9611 50.2096C28.1595 51.3142 28.9393 52.2254 30.0001 52.5919C31.0609 52.9583 32.2369 52.7228 33.0748 51.9761C33.9126 51.2294 34.2815 50.0881 34.0392 48.9924L30.9392 33.4922ZM31.8598 50.1734C31.6284 50.5207 31.2108 50.6946 30.8014 50.6144C30.3918 50.5341 30.0708 50.2155 29.9875 49.8066L27.8909 39.3286C27.808 38.9158 27.4831 38.5945 27.0694 38.5164C27.0064 38.5042 26.9423 38.4979 26.8782 38.4978C26.5255 38.4975 26.1971 38.6771 26.007 38.9741L21.5368 45.9544C21.3358 46.2348 21.0119 46.4012 20.6668 46.4012C20.3217 46.4012 19.9977 46.2348 19.7967 45.9544L15.3265 38.9732C15.0994 38.6181 14.6793 38.4366 14.265 38.5145C13.8508 38.5925 13.5254 38.9142 13.4428 39.3276L11.3462 49.8067C11.2723 50.1685 11.0111 50.4634 10.6609 50.5804C10.3107 50.6974 9.92468 50.6185 9.64822 50.3737C9.37176 50.1288 9.24704 49.7551 9.3209 49.3933L12.4209 33.8933C12.5039 33.4805 12.829 33.1593 13.2428 33.0815C13.6565 33.0036 14.0763 33.1845 14.3035 33.5389L19.7967 42.1156C19.9986 42.3948 20.3223 42.5602 20.6668 42.5602C21.0113 42.5602 21.335 42.3948 21.5368 42.1156L27.03 33.5389C27.2589 33.186 27.6775 33.0054 28.0913 33.0811C28.5081 33.1558 28.8364 33.4788 28.918 33.8944L32.018 49.3944C32.072 49.6647 32.0151 49.9455 31.8598 50.1734Z"
            fill="#0085AF" />
        <path fill-rule="evenodd" clip-rule="evenodd"
            d="M37.3706 28.8465L40.8168 26.4884C41.787 25.7956 42.364 24.6777 42.3668 23.4855C42.2133 21.316 40.4085 19.6343 38.2335 19.6343C36.0585 19.6343 34.2536 21.3159 34.1002 23.4855C34.1002 24.0563 34.5629 24.5188 35.1335 24.5188C35.7042 24.5188 36.1668 24.0563 36.1668 23.4855C36.316 22.4589 37.1961 21.6975 38.2335 21.6975C39.2709 21.6975 40.151 22.4589 40.3002 23.4855C40.2962 24.0061 40.0454 24.4938 39.6244 24.7999L36.203 27.1393C34.9078 28.0003 34.1208 29.4448 34.1001 30.9999C34.1001 31.5706 34.5628 32.0332 35.1334 32.0332H41.3334C41.9041 32.0332 42.3667 31.5705 42.3667 30.9999C42.3667 30.4292 41.904 29.9666 41.3334 29.9666H36.3982C36.6159 29.5127 36.9519 29.1257 37.3706 28.8465Z"
            fill="#0085AF" />
        <path
            d="M58.9 0H23.7667C22.0547 0 20.6667 1.38798 20.6667 3.1V20.6667H3.1C1.38798 20.6667 0 22.0547 0 23.7667V58.9C0 60.6121 1.38798 62 3.1 62H38.2333C39.9453 62 41.3333 60.6121 41.3333 58.9V41.3333H58.9C60.612 41.3333 62 39.9453 62 38.2333V3.1C62 1.38798 60.6121 0 58.9 0ZM59.9333 38.2333C59.9333 38.804 59.4707 39.2666 58.9 39.2666H40.3C39.7293 39.2666 39.2667 39.7292 39.2667 40.2999V58.8999C39.2667 59.4706 38.804 59.9332 38.2334 59.9332H3.1C2.52929 59.9332 2.06671 59.4706 2.06671 58.8999V23.7667C2.06671 23.196 2.52941 22.7334 3.1 22.7334H21.7C22.2707 22.7334 22.7333 22.2708 22.7333 21.7001V3.1C22.7333 2.52929 23.196 2.06671 23.7666 2.06671H58.9C59.4707 2.06671 59.9333 2.52941 59.9333 3.1V38.2333Z"
            fill="#0085AF" />
        <path fill-rule="evenodd" clip-rule="evenodd"
            d="M26.8668 10.3331C27.4375 10.3331 27.9001 9.87051 27.9001 9.2998V7.23309H29.9668C30.5375 7.23309 31.0001 6.77039 31.0001 6.1998C31.0001 5.6292 30.5375 5.1665 29.9668 5.1665H26.8668C26.2961 5.1665 25.8335 5.6292 25.8335 6.1998V9.2998C25.8334 9.87051 26.2961 10.3331 26.8668 10.3331Z"
            fill="#0085AF" />
        <path fill-rule="evenodd" clip-rule="evenodd"
            d="M55.8003 31C55.2296 31 54.767 31.4627 54.767 32.0333V34.1H52.7003C52.1296 34.1 51.667 34.5627 51.667 35.1333C51.667 35.704 52.1296 36.1666 52.7003 36.1666H55.8003C56.371 36.1666 56.8336 35.7039 56.8336 35.1333V32.0333C56.8336 31.4627 56.371 31 55.8003 31Z"
            fill="#0085AF" />
    </g>
</svg>