<svg xmlns="http://www.w3.org/2000/svg" width="40" height="40" viewBox="0 0 40 40" fill="none">
    <path
        d="M28.3732 0H11.6265C10.5458 0 9.6665 0.879333 9.6665 1.96V23.3333V24.6667V38.04C9.6665 39.1207 10.5458 40 11.6265 40H28.3732C29.4538 40 30.3332 39.1207 30.3332 38.04V24.6667V23.3333V1.96C30.3332 0.879333 29.4538 0 28.3732 0ZM28.9998 38.04C28.9998 38.386 28.7185 38.6667 28.3732 38.6667H11.6265C11.2805 38.6667 10.9998 38.3853 10.9998 38.04V24.6667H28.9998V38.04ZM10.9998 23.3333V1.96C10.9998 1.61467 11.2812 1.33333 11.6265 1.33333H28.3732C28.7192 1.33333 28.9998 1.61467 28.9998 1.96V23.3333H10.9998Z"
        fill="#0085AF" />
    <path
        d="M12.3332 14C11.9645 14 11.6665 14.298 11.6665 14.6667C11.6665 15.0353 11.9645 15.3333 12.3332 15.3333C12.7012 15.3333 12.9998 15.632 12.9998 16V20C12.9998 20.368 12.7012 20.6667 12.3332 20.6667C11.9645 20.6667 11.6665 20.9647 11.6665 21.3333C11.6665 21.702 11.9645 22 12.3332 22C13.4358 22 14.3332 21.1027 14.3332 20V16C14.3332 14.8973 13.4358 14 12.3332 14Z"
        fill="#0085AF" />
    <path
        d="M12.3332 32.6667C11.9645 32.6667 11.6665 32.9647 11.6665 33.3333C11.6665 33.702 11.9645 34 12.3332 34C13.4358 34 14.3332 33.1027 14.3332 32V28C14.3332 26.8973 13.4358 26 12.3332 26C11.9645 26 11.6665 26.298 11.6665 26.6667C11.6665 27.0353 11.9645 27.3333 12.3332 27.3333C12.7012 27.3333 12.9998 27.632 12.9998 28V32C12.9998 32.368 12.7012 32.6667 12.3332 32.6667Z"
        fill="#0085AF" />
    <path
        d="M20.333 4H18.9997C18.631 4 18.333 4.298 18.333 4.66667C18.333 5.03533 18.631 5.33333 18.9997 5.33333H20.333C20.7017 5.33333 20.9997 5.03533 20.9997 4.66667C20.9997 4.298 20.7017 4 20.333 4Z"
        fill="#0085AF" />
</svg>