<svg xmlns="http://www.w3.org/2000/svg" width="179" height="165" viewBox="0 0 179 165" fill="none">
    <g>
        <path
            d="M151.101 73.9791C149.157 72.047 146.019 72.047 144.075 73.9791L129.126 88.928L136.152 95.9539L142.082 90.0242C137.926 122.786 107.999 145.975 75.2376 141.82C42.476 137.665 19.2863 107.737 23.4418 74.9757C27.2325 45.0915 52.6614 22.6931 82.7849 22.7047V12.7388C44.2568 12.7257 13.0131 43.9482 13 82.4763C12.9869 121.004 44.2094 152.248 82.7375 152.261C118.669 152.273 148.733 124.991 152.197 89.2269L158.974 96.0037L166 88.9778L151.101 73.9791Z"
            fill="#3498DB" />
        <path
            d="M82.7849 57.5852V82.4999C82.7771 83.8244 83.2972 85.0973 84.2299 86.0378L99.1788 100.987L106.205 93.9607L92.7508 80.4569V57.5852H82.7849Z"
            fill="#3498DB" />
    </g>
</svg>