<svg xmlns="http://www.w3.org/2000/svg" width="60" height="60" viewBox="0 0 60 60" fill="none">
    <g clip-path="url(#clip0_136_428)">
        <path
            d="M4.83668 20.8015H12.3427C13.3716 20.8015 14.2057 19.9672 14.2057 18.9384V6.82838C14.2057 5.79947 13.3714 4.96533 12.3427 4.96533H4.83668C3.80777 4.96533 2.97363 5.79959 2.97363 6.82838V18.9384C2.97363 19.9672 3.80777 20.8015 4.83668 20.8015ZM6.69973 8.69143H10.4796V17.0753H6.69973V8.69143Z"
            fill="#0085AF" />
        <path
            d="M27.9641 37.8017C30.2115 37.8017 32.0395 35.9733 32.0395 33.7263C32.0395 31.4794 30.2115 29.6509 27.9641 29.6509C25.7167 29.6509 23.8887 31.4794 23.8887 33.7263C23.8887 35.9733 25.7167 37.8017 27.9641 37.8017ZM27.9641 32.4454C28.6705 32.4454 29.245 33.0199 29.245 33.7263C29.245 34.4328 28.6705 35.0072 27.9641 35.0072C27.2577 35.0072 26.6832 34.4327 26.6832 33.7263C26.6832 33.0199 27.2577 32.4454 27.9641 32.4454Z"
            fill="#0085AF" />
        <path
            d="M58.137 56.0833H52.2553V48.1651H58.137C59.1659 48.1651 60 47.3309 60 46.3021C60 45.2733 59.1657 44.439 58.137 44.439H52.2553V2.05396C52.2552 1.02518 51.4211 0.190918 50.3921 0.190918H19.4195C18.3906 0.190918 17.5564 1.02518 17.5564 2.05396V44.4389H1.86305C0.834258 44.4389 0 45.2732 0 46.3021C0 47.331 0.834258 48.1651 1.86305 48.1651H17.5564V56.0833H1.86305C0.834258 56.0833 0 56.9174 0 57.9463C0 58.9752 0.834258 59.8094 1.86305 59.8094H58.1368C59.1657 59.8094 59.9999 58.9751 59.9999 57.9463C60 56.9174 59.1657 56.0833 58.137 56.0833ZM48.529 56.0833H21.2825V3.91713H48.5291L48.529 56.0833Z"
            fill="#0085AF" />
    </g>
</svg>