<svg width="34" height="34" viewBox="0 0 34 34" fill="none" xmlns="http://www.w3.org/2000/svg">
    <g clip-path="url(#clip0_20_277)">
        <path
            d="M3.43974 3.4401C8.02669 -1.14605 15.4896 -1.14605 20.0758 3.4401C24.1524 7.51658 24.6589 13.9269 21.3486 18.571L24.0062 21.2293L24.5153 20.7202C24.7583 20.4772 25.1523 20.4772 25.3952 20.7202L33.0294 28.3544C33.2222 28.5472 33.391 28.7633 33.5316 28.9977C34.3093 30.2984 34.1028 31.9565 33.0294 33.0299C32.3908 33.6684 31.5449 33.9999 30.6908 33.9999C30.1104 33.9999 29.5261 33.8467 29.0007 33.5329C28.7672 33.3949 28.5497 33.2257 28.3538 33.0299L24.4588 29.1348C24.2158 28.8918 24.2158 28.4978 24.4588 28.2549C24.7018 28.0119 25.0958 28.0119 25.3387 28.2549L29.2337 32.15C29.2423 32.1585 29.2513 32.1663 29.26 32.1746L32.174 29.2606C32.1656 29.2519 32.1578 29.2428 32.1494 29.2343L24.9552 22.0402L22.0395 24.9558L24.0114 26.9275C24.2544 27.1705 24.2544 27.5645 24.0114 27.8074C23.7684 28.0504 23.3744 28.0504 23.1315 27.8074L20.7198 25.3957C20.603 25.279 20.5375 25.1208 20.5375 24.9558C20.5375 24.7908 20.603 24.6325 20.7198 24.5158L21.2281 24.0075L18.5702 21.3489C16.5276 22.8048 14.1435 23.5227 11.766 23.5226C8.73903 23.5224 5.72306 22.3592 3.43954 20.0762C-1.14647 15.4893 -1.14647 8.02631 3.43974 3.4401ZM30.4541 32.7407C31.0645 32.8116 31.6922 32.6073 32.1495 32.15C32.6074 31.692 32.8122 31.0638 32.7412 30.4534L30.4541 32.7407ZM22.1082 23.1275L23.1264 22.1093L20.5694 19.5516C20.4107 19.7309 20.2458 19.9063 20.0759 20.0761C19.9058 20.2462 19.7304 20.4111 19.5511 20.5697L22.1082 23.1275ZM4.31956 19.1962C8.084 22.9599 14.0723 23.3207 18.2501 20.0348C18.5776 19.7785 18.8958 19.4963 19.1958 19.1962C19.4958 18.8962 19.7779 18.5781 20.0343 18.2506C20.0346 18.2502 20.0349 18.2498 20.0353 18.2494C23.3206 14.0723 22.9597 8.08395 19.1958 4.32005C17.1453 2.26956 14.4517 1.24431 11.7581 1.24431C9.06442 1.24431 6.37052 2.26956 4.31963 4.32005C0.218575 8.4211 0.218643 15.0945 4.31956 19.1962Z"
            fill="#E7E7E7" />
        <path
            d="M5.85912 5.85947C6.1021 5.61649 6.49609 5.61649 6.739 5.85947C6.98198 6.10246 6.98198 6.49644 6.739 6.73936C5.39839 8.07983 4.66022 9.86224 4.66022 11.7581C4.66022 13.6539 5.39839 15.4362 6.739 16.7768C9.50628 19.5441 14.009 19.5441 16.7764 16.7768C18.1171 15.4362 18.8553 13.6538 18.8553 11.7581C18.8553 9.86231 18.117 8.07997 16.7764 6.73936C14.4751 4.43798 10.9183 3.99306 8.12683 5.65747C7.83158 5.83351 7.44968 5.73689 7.27371 5.44171C7.09773 5.14654 7.19428 4.76457 7.48946 4.58859C10.7708 2.63206 14.9515 3.15475 17.6563 5.85941C19.2319 7.43496 20.0996 9.52982 20.0996 11.758C20.0996 13.9862 19.2319 16.0811 17.6563 17.6567C16.03 19.283 13.8938 20.0961 11.7577 20.0961C9.62143 20.0961 7.48528 19.283 5.85905 17.6567C4.28343 16.0811 3.41577 13.9863 3.41577 11.758C3.41577 9.52975 4.2835 7.43503 5.85912 5.85947Z"
            fill="#E7E7E7" />
    </g>
    <defs>
        <clipPath id="clip0_20_277">
            <rect width="34" height="34" fill="white" transform="matrix(-1 0 0 1 34 0)" />
        </clipPath>
    </defs>
</svg>