<svg xmlns="http://www.w3.org/2000/svg" width="78" height="78" viewBox="0 0 78 78" fill="none">
  <path fill-rule="evenodd" clip-rule="evenodd" d="M14 0C6.26801 0 0 6.26801 0 14V64C0 71.732 6.26801 78 14 78H64C71.732 78 78 71.732 78 64V14C78 6.26801 71.732 0 64 0H14ZM65.9681 17.2594L56.8039 61.3399C56.5881 62.3806 55.3677 62.8522 54.5066 62.2265L41.9966 53.1441C41.2371 52.5926 40.2015 52.6219 39.4745 53.2147L32.5385 58.8686C31.7337 59.5269 30.5206 59.16 30.2124 58.1686L27.4355 49.2379C26.1492 45.1014 23.0205 41.7932 18.962 40.2785L12.9535 38.0361C11.6895 37.5626 11.6787 35.7782 12.9391 35.2927L64.0046 15.593C65.0871 15.1743 66.204 16.1227 65.9681 17.2594Z" fill="#E7E7E7"/>
  <path fill-rule="evenodd" clip-rule="evenodd" d="M53.7542 25.2307L29.4364 40.2079C28.5044 40.783 28.0657 41.9086 28.3664 42.9624L30.9956 52.2008C31.1826 52.8554 32.1323 52.7885 32.2233 52.1122L32.9066 47.046C33.0357 46.0921 33.4905 45.2129 34.1961 44.5565L54.2651 25.9013C54.6409 25.5533 54.191 24.9624 53.7542 25.2307Z" fill="#E7E7E7"/>
</svg>