<svg xmlns="http://www.w3.org/2000/svg" width="34" height="34" viewBox="0 0 34 34" fill="none">
    <g>
        <path
            d="M21.0508 10.0273H4.98047C4.43036 10.0273 3.98438 10.4733 3.98438 11.0234V24.9688C3.98438 25.5189 4.43036 25.9648 4.98047 25.9648H21.0508C21.6009 25.9648 22.0469 25.5189 22.0469 24.9688V11.0234C22.0469 10.4733 21.6009 10.0273 21.0508 10.0273ZM20.0547 23.9727H5.97656V12.0195H20.0547V23.9727Z"
            fill="#0085AF" />
        <path
            d="M29.0195 6.04298H15.4017L19.7004 1.69656C20.0872 1.30543 20.0838 0.67477 19.6926 0.287887C19.3014 -0.0990624 18.6707 -0.0954101 18.284 0.295656L13.0156 5.62257L7.74729 0.295656C7.36054 -0.0954765 6.72988 -0.098996 6.33861 0.287887C5.94741 0.674703 5.94402 1.30543 6.33084 1.69656L10.6295 6.04298H4.98047C2.23424 6.04298 0 8.27722 0 11.0235V24.9688C0 27.1135 1.36266 28.9458 3.26765 29.6457C2.44335 30.5767 1.99219 31.7594 1.99219 33.0039C1.99219 33.554 2.43817 34 2.98828 34H31.0117C31.5618 34 32.0078 33.554 32.0078 33.0039C32.0078 31.7594 31.5566 30.5767 30.7323 29.6457C32.6373 28.9458 34 27.1135 34 24.9688V11.0235C34 8.27722 31.7658 6.04298 29.0195 6.04298ZM4.15424 32.0078C4.56868 30.8236 5.69214 29.9492 6.97266 29.9492H27.0273C28.3079 29.9492 29.4313 30.8236 29.8458 32.0078H4.15424ZM32.0078 24.9688C32.0078 26.6165 30.6673 27.957 29.0195 27.957C27.805 27.957 5.76439 27.957 4.98047 27.957C3.33273 27.957 1.99219 26.6165 1.99219 24.9688V11.0235C1.99219 9.37572 3.33273 8.03517 4.98047 8.03517H29.0195C30.6673 8.03517 32.0078 9.37572 32.0078 11.0235V24.9688Z"
            fill="#0085AF" />
        <path
            d="M27.0273 10.0273C25.3796 10.0273 24.0391 11.3679 24.0391 13.0156C24.0391 14.6634 25.3796 16.0039 27.0273 16.0039C28.6751 16.0039 30.0156 14.6634 30.0156 13.0156C30.0156 11.3679 28.6751 10.0273 27.0273 10.0273ZM27.0273 14.0117C26.4781 14.0117 26.0312 13.5649 26.0312 13.0156C26.0312 12.4664 26.4781 12.0195 27.0273 12.0195C27.5766 12.0195 28.0234 12.4664 28.0234 13.0156C28.0234 13.5649 27.5766 14.0117 27.0273 14.0117Z"
            fill="#0085AF" />
        <path
            d="M29.0195 17.9961H25.0352C24.485 17.9961 24.0391 18.4421 24.0391 18.9922C24.0391 19.5423 24.485 19.9883 25.0352 19.9883H29.0195C29.5696 19.9883 30.0156 19.5423 30.0156 18.9922C30.0156 18.4421 29.5696 17.9961 29.0195 17.9961Z"
            fill="#0085AF" />
        <path
            d="M29.0195 21.9805H25.0352C24.485 21.9805 24.0391 22.4265 24.0391 22.9766C24.0391 23.5267 24.485 23.9727 25.0352 23.9727H29.0195C29.5696 23.9727 30.0156 23.5267 30.0156 22.9766C30.0156 22.4265 29.5696 21.9805 29.0195 21.9805Z"
            fill="#0085AF" />
    </g>
</svg>