<svg width="32" height="40" viewBox="0 0 32 40" fill="none" xmlns="http://www.w3.org/2000/svg">
    <path id="Vector"
        d="M4 40H28C30.209 40 32 38.209 32 36V30.6667C31.9941 25.5143 27.819 21.3392 22.6667 21.3333H20V18.1016C22.4264 17.0423 23.9967 14.6478 24 12V6.66667C23.9954 2.98633 21.0137 0.00455733 17.3333 0H14.6667C10.9863 0.00455733 8.00456 2.98633 8 6.66667V12C8.00326 14.6478 9.57357 17.0423 12 18.1016V21.3333H9.33333C4.18099 21.3392 0.00585933 25.5143 0 30.6667V36C0 38.209 1.79102 40 4 40ZM14.6667 2.66667H17.3333C19.5423 2.66667 21.3333 4.45768 21.3333 6.66667H19.2188L18.276 5.72396C17.9193 5.36719 17.3913 5.24219 16.9121 5.40104L13.1172 6.66667H10.6667C10.6667 4.45768 12.4577 2.66667 14.6667 2.66667ZM10.6667 12V9.33333H13.3333C13.4766 9.33333 13.6185 9.31055 13.7546 9.26562L16.9733 8.19857L17.724 8.94922C17.9753 9.19727 18.3138 9.33529 18.6667 9.33333H21.3333V12C21.3333 14.209 19.5423 16 17.3333 16H14.6667C12.4577 16 10.6667 14.209 10.6667 12ZM14.6667 18.6667H17.3333V21.3333H14.6667V18.6667ZM20.959 24L18.959 32H13.041L11.041 24H20.959ZM2.66667 30.6667C2.67578 27.3854 5.07357 24.5996 8.31706 24.1029L10.7064 33.6562C10.8548 34.25 11.388 34.6667 12 34.6667H20C20.612 34.6667 21.1452 34.25 21.2936 33.6562L23.6829 24.1029C26.9264 24.5996 29.3242 27.3854 29.3333 30.6667V36C29.3333 36.7363 28.7363 37.3333 28 37.3333H4C3.26367 37.3333 2.66667 36.7363 2.66667 36V30.6667Z"
        fill="#1A6FB0" />
</svg>