<svg xmlns="http://www.w3.org/2000/svg" width="34" height="34" viewBox="0 0 34 34" fill="none">
    <path
        d="M27.625 0H6.37533C4.72759 0 3.38705 1.34054 3.38705 2.98828V7.74549C3.38705 7.74768 3.38672 7.74974 3.38672 7.75193C3.38672 7.75413 3.38705 7.75618 3.38705 7.75838V31.0117C3.38705 32.6595 4.72759 34 6.37533 34H27.625C29.2727 34 30.6133 32.6595 30.6133 31.0117V2.98828C30.6133 1.34054 29.2727 0 27.625 0ZM28.6211 31.0117C28.6211 31.561 28.1742 32.0078 27.625 32.0078H6.37533C5.82609 32.0078 5.37924 31.561 5.37924 31.0117V8.74796H28.6211V31.0117ZM28.6211 6.75577H5.37924V2.98828C5.37924 2.43904 5.82602 1.99219 6.37533 1.99219H27.625C28.1742 1.99219 28.6211 2.43904 28.6211 2.98828V6.75577Z"
        fill="#0085AF" />
    <path
        d="M24.6367 5.37891C25.1868 5.37891 25.6328 4.93294 25.6328 4.38281C25.6328 3.83269 25.1868 3.38672 24.6367 3.38672C24.0866 3.38672 23.6406 3.83269 23.6406 4.38281C23.6406 4.93294 24.0866 5.37891 24.6367 5.37891Z"
        fill="#0085AF" />
    <path
        d="M20.6523 5.37891C21.2025 5.37891 21.6484 4.93294 21.6484 4.38281C21.6484 3.83269 21.2025 3.38672 20.6523 3.38672C20.1022 3.38672 19.6562 3.83269 19.6562 4.38281C19.6562 4.93294 20.1022 5.37891 20.6523 5.37891Z"
        fill="#0085AF" />
    <path
        d="M16.9999 11.7539C12.2398 11.7539 8.36719 15.6265 8.36719 20.3867C8.36719 25.1469 12.2398 29.0195 16.9999 29.0195C21.7599 29.0195 25.6325 25.1469 25.6325 20.3867C25.6325 15.6265 21.7599 11.7539 16.9999 11.7539ZM16.9999 27.0273C13.3383 27.0273 10.3594 24.0484 10.3594 20.3867C10.3594 16.725 13.3383 13.7461 16.9999 13.7461C20.6614 13.7461 23.6404 16.725 23.6404 20.3867C23.6404 24.0484 20.6614 27.0273 16.9999 27.0273Z"
        fill="#0085AF" />
</svg>