<svg width="22" height="37" viewBox="0 0 22 37" fill="none" xmlns="http://www.w3.org/2000/svg">
    <path
        d="M11 36.5438C4.93468 36.5438 0 30.7411 0 23.6086C0 12.5898 10.0014 0.781295 10.4271 0.283392C10.7513 -0.0944639 11.2487 -0.0944639 11.5729 0.283392C11.9986 0.782279 22 12.5898 22 23.6086C22 30.7411 17.0653 36.5438 11 36.5438ZM11 2.57168C8.89133 5.23635 1.69228 14.9676 1.69228 23.6086C1.69228 29.5564 5.86816 34.3942 11 34.3942C16.1318 34.3942 20.3077 29.5564 20.3077 23.6086C20.3077 14.9676 13.1087 5.23635 11 2.57168Z"
        fill="#0085AF" />
    <path
        d="M11.0002 32.245C6.8007 32.245 3.38477 28.3877 3.38477 23.6468C3.38477 23.0534 3.76397 22.5718 4.2311 22.5718C4.69823 22.5718 5.07704 23.0534 5.07704 23.6468C5.07704 27.203 7.73418 30.0954 11.0002 30.0954C11.4673 30.0954 11.8465 30.5771 11.8465 31.17C11.8465 31.7633 11.4673 32.245 11.0002 32.245Z"
        fill="#0085AF" />
</svg>
    