<svg xmlns="http://www.w3.org/2000/svg" width="36" height="36" viewBox="0 0 36 36" fill="none">
    <path
        d="M32.642 12.2844C28.6145 8.65068 23.4114 6.65381 17.9889 6.65381C12.5776 6.65381 7.3801 8.63943 3.3526 12.2619C2.95885 12.6219 2.72823 13.1394 2.7226 13.6682C2.71135 14.2026 2.91948 14.7201 3.29635 15.0969L14.9457 26.7463C15.2776 27.0782 15.812 27.0782 16.1382 26.7463C16.4701 26.4201 16.4701 25.8857 16.1382 25.5538L14.147 23.5626C15.2101 22.7357 16.5432 22.2463 17.9889 22.2463C19.4514 22.2463 20.7957 22.7469 21.8645 23.5794L19.8901 25.5538C19.5639 25.8857 19.5639 26.4201 19.8901 26.7463C20.0589 26.9151 20.2726 26.9938 20.4864 26.9938C20.7057 26.9938 20.9195 26.9151 21.0826 26.7463L23.7432 24.0913C23.7432 24.0913 31.9164 15.9069 32.7039 15.1194C33.0807 14.7426 33.2889 14.2251 33.2776 13.6963C33.272 13.1619 33.0414 12.6501 32.642 12.2844ZM23.0626 22.3813C21.6845 21.2394 19.9126 20.5588 17.9889 20.5588C16.0764 20.5588 14.3157 21.2338 12.9432 22.3588L9.07323 18.4888C11.447 16.3738 14.5689 15.0969 17.9889 15.0969C21.4201 15.0969 24.5532 16.3851 26.9326 18.5113C25.3464 20.1032 23.8276 21.6163 23.0626 22.3813ZM31.5114 13.9269C30.7295 14.7144 29.4639 15.9801 28.1307 17.3188C25.442 14.8888 21.8814 13.4094 17.9889 13.4094C14.1076 13.4094 10.5582 14.8776 7.8751 17.2907L4.48885 13.9044C4.43823 13.8538 4.40448 13.7751 4.40448 13.7019C4.4101 13.6232 4.44385 13.5501 4.48885 13.5107C8.20135 10.1751 12.9939 8.34131 17.9889 8.34131C22.9951 8.34131 27.7989 10.1863 31.5057 13.5276C31.5564 13.5782 31.5901 13.6513 31.5901 13.7301C31.5957 13.8032 31.5676 13.8763 31.5114 13.9269Z"
        fill="#0085AF" />
    <path
        d="M18.0441 29.3462H17.9912C17.5249 29.3462 17.1475 28.9682 17.1475 28.5024C17.1475 28.0367 17.5249 27.6587 17.9912 27.6587C18.4575 27.6587 18.8614 28.0367 18.8614 28.5024C18.8614 28.9682 18.5098 29.3462 18.0441 29.3462Z"
        fill="#0085AF" />
</svg>