<svg width="32" height="32" viewBox="0 0 32 32" fill="none" xmlns="http://www.w3.org/2000/svg">
    <path id="Vector"
        d="M31.9486 12.1436C31.8251 11.7454 31.4967 11.4552 31.1015 11.395L21.3177 9.90449L16.9412 0.612968C16.7644 0.237616 16.3995 0 16 0C15.6006 0 15.2356 0.237616 15.0588 0.612968L10.6823 9.90449L0.898545 11.395C0.503295 11.4552 0.174795 11.7454 0.0514194 12.1435C-0.0720807 12.5416 0.0309194 12.9788 0.317045 13.2709L7.39612 20.5021L5.72618 30.7144C5.65868 31.127 5.82055 31.5439 6.14374 31.7899C6.46686 32.0359 6.89524 32.0684 7.24893 31.8737L15.9999 27.0537L24.7508 31.8737C25.1063 32.0695 25.5346 32.0346 25.856 31.7899C26.1792 31.5439 26.3411 31.1269 26.2736 30.7144L24.6038 20.5022L31.683 13.2709C31.9691 12.9787 32.0721 12.5416 31.9486 12.1436ZM22.7436 19.3305C22.4962 19.5831 22.3834 19.947 22.4417 20.3038L23.8456 28.89L16.4883 24.8375C16.1826 24.669 15.8173 24.669 15.5117 24.8375L8.15424 28.89L9.55818 20.3038C9.61656 19.9471 9.50368 19.5831 9.25631 19.3305L3.30486 13.2512L11.5303 11.998C11.8721 11.946 12.1675 11.721 12.3205 11.3965L16 3.58468L19.6795 11.3965C19.8324 11.7211 20.1279 11.946 20.4697 11.9981L28.6951 13.2512L22.7436 19.3305Z"
        fill="#FFBD00" />
</svg>